<svg width="1627" height="1489" viewBox="0 0 1627 1489" fill="none" xmlns="http://www.w3.org/2000/svg">
<mask id="mask0_932_794" style="mask-type:alpha" maskUnits="userSpaceOnUse" x="0" y="0" width="1627" height="1489">
<rect x="1626.57" y="667.57" width="949.097" height="1329.84" transform="rotate(120.128 1626.57 667.57)" fill="url(#paint0_linear_932_794)"/>
</mask>
<g mask="url(#mask0_932_794)">
<path d="M653.84 974.892C407.671 843.655 312.996 571.17 442.394 366.334C455.965 344.85 471.51 324.888 488.672 306.608C414.259 500.553 513.208 731.125 733.606 848.623C954.003 966.121 1220.92 930.6 1367.4 775.075C1358.64 797.833 1347.48 820.136 1333.91 841.619C1204.51 1046.46 900.009 1106.13 653.84 974.892Z" fill="#BE42C9"/>
<g filter="url(#filter0_f_932_794)">
<path d="M662.703 960.862C416.533 829.625 312.996 571.17 442.394 366.334C455.965 344.85 471.51 324.888 488.672 306.608C414.259 500.553 504.345 745.155 724.743 862.653C945.14 980.151 1220.92 930.6 1367.4 775.075C1358.64 797.833 1347.48 820.136 1333.91 841.619C1204.51 1046.46 908.872 1092.1 662.703 960.862Z" fill="#BE42C9"/>
</g>
<g filter="url(#filter1_f_932_794)">
<path d="M667.136 953.849C420.967 822.611 314.224 553.071 443.622 348.234C457.194 326.751 472.739 306.789 489.901 288.509C415.488 482.453 499.916 752.171 720.313 869.669C940.71 987.167 1231.6 911.678 1378.08 756.153C1369.32 778.911 1358.16 801.214 1344.59 822.697C1215.19 1027.53 913.305 1085.09 667.136 953.849Z" fill="#BE42C9"/>
</g>
<g filter="url(#filter2_f_932_794)">
<path d="M667.136 953.849C420.967 822.611 314.224 553.071 443.622 348.234C457.194 326.751 472.739 306.789 489.901 288.509C415.488 482.453 499.916 752.171 720.313 869.669C940.71 987.167 1231.6 911.678 1378.08 756.153C1369.32 778.911 1358.16 801.214 1344.59 822.697C1215.19 1027.53 913.305 1085.09 667.136 953.849Z" fill="#BE42C9"/>
</g>
<g filter="url(#filter3_f_932_794)">
<path d="M667.136 953.849C420.967 822.611 314.224 553.071 443.622 348.234C457.194 326.751 472.739 306.789 489.901 288.509C415.488 482.453 499.916 752.171 720.313 869.669C940.71 987.167 1231.6 911.678 1378.08 756.153C1369.32 778.911 1358.16 801.214 1344.59 822.697C1215.19 1027.53 913.305 1085.09 667.136 953.849Z" fill="#BE42C9"/>
</g>
<g filter="url(#filter4_f_932_794)">
<path d="M675.759 906.87C429.59 775.632 314.224 553.071 443.622 348.234C457.194 326.751 472.739 306.789 489.901 288.509C415.488 482.453 479.289 771.651 705.911 892.468C989.858 1043.85 1231.6 911.678 1378.08 756.153C1369.32 778.911 1358.16 801.214 1344.59 822.697C1215.19 1027.53 921.928 1038.11 675.759 906.87Z" fill="#BE42C9"/>
</g>
<g filter="url(#filter5_f_932_794)">
<path d="M675.759 906.869C429.589 775.632 263.597 559.487 392.995 354.65C406.566 333.167 505.993 291.109 523.155 272.83C448.742 466.774 479.289 771.651 705.91 892.467C989.858 1043.85 1219.99 877.942 1366.47 722.417C1344.23 710.56 1412.36 793.183 1398.79 814.667C1269.39 1019.5 921.928 1038.11 675.759 906.869Z" fill="#BE42C9"/>
</g>
<g filter="url(#filter6_f_932_794)">
<path d="M675.759 906.869C429.589 775.632 263.597 559.487 392.995 354.65C406.566 333.167 505.993 291.109 523.155 272.83C448.742 466.774 479.289 771.651 705.91 892.467C989.858 1043.85 1219.99 877.942 1366.47 722.417C1344.23 710.56 1412.36 793.183 1398.79 814.667C1269.39 1019.5 921.928 1038.11 675.759 906.869Z" fill="#BE42C9"/>
</g>
<g filter="url(#filter7_f_932_794)">
<path d="M675.759 906.869C429.589 775.632 263.597 559.487 392.995 354.65C406.566 333.167 505.993 291.109 523.155 272.83C448.742 466.774 479.289 771.651 705.91 892.467C989.858 1043.85 1219.99 877.942 1366.47 722.417C1344.23 710.56 1412.36 793.183 1398.79 814.667C1269.39 1019.5 921.928 1038.11 675.759 906.869Z" fill="#BE42C9"/>
</g>
</g>
<defs>
<filter id="filter0_f_932_794" x="374.371" y="294.608" width="1005.03" height="752.212" filterUnits="userSpaceOnUse" color-interpolation-filters="sRGB">
<feFlood flood-opacity="0" result="BackgroundImageFix"/>
<feBlend mode="normal" in="SourceGraphic" in2="BackgroundImageFix" result="shape"/>
<feGaussianBlur stdDeviation="6" result="effect1_foregroundBlur_932_794"/>
</filter>
<filter id="filter1_f_932_794" x="352.266" y="252.509" width="1061.81" height="807.613" filterUnits="userSpaceOnUse" color-interpolation-filters="sRGB">
<feFlood flood-opacity="0" result="BackgroundImageFix"/>
<feBlend mode="normal" in="SourceGraphic" in2="BackgroundImageFix" result="shape"/>
<feGaussianBlur stdDeviation="18" result="effect1_foregroundBlur_932_794"/>
</filter>
<filter id="filter2_f_932_794" x="336.266" y="236.509" width="1093.81" height="839.613" filterUnits="userSpaceOnUse" color-interpolation-filters="sRGB">
<feFlood flood-opacity="0" result="BackgroundImageFix"/>
<feBlend mode="normal" in="SourceGraphic" in2="BackgroundImageFix" result="shape"/>
<feGaussianBlur stdDeviation="26" result="effect1_foregroundBlur_932_794"/>
</filter>
<filter id="filter3_f_932_794" x="336.266" y="236.509" width="1093.81" height="839.613" filterUnits="userSpaceOnUse" color-interpolation-filters="sRGB">
<feFlood flood-opacity="0" result="BackgroundImageFix"/>
<feBlend mode="normal" in="SourceGraphic" in2="BackgroundImageFix" result="shape"/>
<feGaussianBlur stdDeviation="26" result="effect1_foregroundBlur_932_794"/>
</filter>
<filter id="filter4_f_932_794" x="265.988" y="164.509" width="1236.09" height="952.825" filterUnits="userSpaceOnUse" color-interpolation-filters="sRGB">
<feFlood flood-opacity="0" result="BackgroundImageFix"/>
<feBlend mode="normal" in="SourceGraphic" in2="BackgroundImageFix" result="shape"/>
<feGaussianBlur stdDeviation="62" result="effect1_foregroundBlur_932_794"/>
</filter>
<filter id="filter5_f_932_794" x="271.898" y="196.829" width="1204.7" height="869.412" filterUnits="userSpaceOnUse" color-interpolation-filters="sRGB">
<feFlood flood-opacity="0" result="BackgroundImageFix"/>
<feBlend mode="normal" in="SourceGraphic" in2="BackgroundImageFix" result="shape"/>
<feGaussianBlur stdDeviation="38" result="effect1_foregroundBlur_932_794"/>
</filter>
<filter id="filter6_f_932_794" x="183.898" y="108.829" width="1380.7" height="1045.41" filterUnits="userSpaceOnUse" color-interpolation-filters="sRGB">
<feFlood flood-opacity="0" result="BackgroundImageFix"/>
<feBlend mode="normal" in="SourceGraphic" in2="BackgroundImageFix" result="shape"/>
<feGaussianBlur stdDeviation="82" result="effect1_foregroundBlur_932_794"/>
</filter>
<filter id="filter7_f_932_794" x="103.898" y="28.8291" width="1540.7" height="1205.41" filterUnits="userSpaceOnUse" color-interpolation-filters="sRGB">
<feFlood flood-opacity="0" result="BackgroundImageFix"/>
<feBlend mode="normal" in="SourceGraphic" in2="BackgroundImageFix" result="shape"/>
<feGaussianBlur stdDeviation="122" result="effect1_foregroundBlur_932_794"/>
</filter>
<linearGradient id="paint0_linear_932_794" x1="2101.12" y1="667.57" x2="2101.12" y2="1997.41" gradientUnits="userSpaceOnUse">
<stop stop-color="#C4C4C4" stop-opacity="0"/>
<stop offset="0.380208" stop-color="#C4C4C4"/>
<stop offset="0.578125" stop-color="#C4C4C4"/>
<stop offset="1" stop-color="#C4C4C4" stop-opacity="0"/>
</linearGradient>
</defs>
</svg>
