<svg width="1492" height="1316" viewBox="0 0 1492 1316" fill="none" xmlns="http://www.w3.org/2000/svg">
<path d="M1008.63 360.041C1234.05 519.672 1289.2 801.177 1131.81 988.746C1115.3 1008.42 1097.05 1026.35 1077.44 1042.41C1178.77 859.048 1113.42 618.585 911.606 475.666C709.787 332.747 440.108 335.961 272.786 472.592C284.706 451.08 298.934 430.305 315.441 410.633C472.835 223.063 783.211 200.41 1008.63 360.041Z" fill="#7326F1"/>
<g filter="url(#filter0_f_932_782)">
<path d="M997.849 372.888C1223.27 532.519 1289.2 801.177 1131.81 988.746C1115.3 1008.42 1097.05 1026.35 1077.44 1042.41C1178.77 859.048 1124.2 605.738 922.386 462.819C720.568 319.899 440.108 335.961 272.786 472.592C284.706 451.08 298.934 430.305 315.441 410.633C472.835 223.063 772.431 213.257 997.849 372.888Z" fill="#7326F1"/>
</g>
<g filter="url(#filter1_f_932_782)">
<path d="M992.456 379.311C1217.87 538.942 1285.41 818.975 1128.02 1006.54C1111.51 1026.22 1093.26 1044.14 1073.65 1060.21C1174.98 876.847 1129.59 599.313 927.774 456.394C725.956 313.475 426.831 353.441 259.508 490.073C271.429 468.56 285.657 447.786 302.164 428.113C459.557 240.543 767.039 219.68 992.456 379.311Z" fill="#7326F1"/>
</g>
<g filter="url(#filter2_f_932_782)">
<path d="M992.456 379.311C1217.87 538.942 1285.41 818.975 1128.02 1006.54C1111.51 1026.22 1093.26 1044.14 1073.65 1060.21C1174.98 876.847 1129.59 599.313 927.774 456.394C725.956 313.475 426.831 353.441 259.508 490.073C271.429 468.56 285.657 447.786 302.164 428.113C459.557 240.543 767.039 219.68 992.456 379.311Z" fill="#7326F1"/>
</g>
<g filter="url(#filter3_f_932_782)">
<path d="M992.456 379.311C1217.87 538.942 1285.41 818.975 1128.02 1006.54C1111.51 1026.22 1093.26 1044.14 1073.65 1060.21C1174.98 876.847 1129.59 599.313 927.774 456.394C725.956 313.475 426.831 353.441 259.508 490.073C271.429 468.56 285.657 447.786 302.164 428.113C459.557 240.543 767.039 219.68 992.456 379.311Z" fill="#7326F1"/>
</g>
<g filter="url(#filter4_f_932_782)">
<path d="M977.232 424.854C1202.65 584.485 1285.41 818.975 1128.02 1006.54C1111.51 1026.22 1093.26 1044.14 1073.65 1060.21C1174.98 876.847 1152.81 582.473 945.292 435.518C685.281 251.389 426.831 353.441 259.508 490.073C271.429 468.56 285.657 447.786 302.164 428.113C459.557 240.543 751.814 265.223 977.232 424.854Z" fill="#7326F1"/>
</g>
<g filter="url(#filter5_f_932_782)">
<path d="M977.232 424.855C1202.65 584.486 1336.51 818.684 1179.12 1006.25C1162.61 1025.93 1058.06 1055.7 1038.45 1071.77C1139.78 888.405 1152.81 582.474 945.293 435.518C685.281 251.389 433.548 388.281 266.226 524.912C286.591 539.334 230.782 449.249 247.289 429.577C404.683 242.007 751.815 265.223 977.232 424.855Z" fill="#7326F1"/>
</g>
<g filter="url(#filter6_f_932_782)">
<path d="M977.232 424.855C1202.65 584.486 1336.51 818.684 1179.12 1006.25C1162.61 1025.93 1058.06 1055.7 1038.45 1071.77C1139.78 888.405 1152.81 582.474 945.293 435.518C685.281 251.389 433.548 388.281 266.226 524.912C286.591 539.334 230.782 449.249 247.289 429.577C404.683 242.007 751.815 265.223 977.232 424.855Z" fill="#7326F1"/>
</g>
<g filter="url(#filter7_f_932_782)">
<path d="M977.232 424.855C1202.65 584.486 1336.51 818.684 1179.12 1006.25C1162.61 1025.93 1058.06 1055.7 1038.45 1071.77C1139.78 888.405 1152.81 582.474 945.293 435.518C685.281 251.389 433.548 388.281 266.226 524.912C286.591 539.334 230.782 449.249 247.289 429.577C404.683 242.007 751.815 265.223 977.232 424.855Z" fill="#7326F1"/>
</g>
<defs>
<filter id="filter0_f_932_782" x="260.785" y="248.949" width="969.242" height="805.463" filterUnits="userSpaceOnUse" color-interpolation-filters="sRGB">
<feFlood flood-opacity="0" result="BackgroundImageFix"/>
<feBlend mode="normal" in="SourceGraphic" in2="BackgroundImageFix" result="shape"/>
<feGaussianBlur stdDeviation="6" result="effect1_foregroundBlur_932_782"/>
</filter>
<filter id="filter1_f_932_782" x="223.508" y="236.203" width="1026.23" height="860.007" filterUnits="userSpaceOnUse" color-interpolation-filters="sRGB">
<feFlood flood-opacity="0" result="BackgroundImageFix"/>
<feBlend mode="normal" in="SourceGraphic" in2="BackgroundImageFix" result="shape"/>
<feGaussianBlur stdDeviation="18" result="effect1_foregroundBlur_932_782"/>
</filter>
<filter id="filter2_f_932_782" x="207.508" y="220.203" width="1058.23" height="892.007" filterUnits="userSpaceOnUse" color-interpolation-filters="sRGB">
<feFlood flood-opacity="0" result="BackgroundImageFix"/>
<feBlend mode="normal" in="SourceGraphic" in2="BackgroundImageFix" result="shape"/>
<feGaussianBlur stdDeviation="26" result="effect1_foregroundBlur_932_782"/>
</filter>
<filter id="filter3_f_932_782" x="207.508" y="220.203" width="1058.23" height="892.007" filterUnits="userSpaceOnUse" color-interpolation-filters="sRGB">
<feFlood flood-opacity="0" result="BackgroundImageFix"/>
<feBlend mode="normal" in="SourceGraphic" in2="BackgroundImageFix" result="shape"/>
<feGaussianBlur stdDeviation="26" result="effect1_foregroundBlur_932_782"/>
</filter>
<filter id="filter4_f_932_782" x="135.508" y="172.159" width="1197.7" height="1012.05" filterUnits="userSpaceOnUse" color-interpolation-filters="sRGB">
<feFlood flood-opacity="0" result="BackgroundImageFix"/>
<feBlend mode="normal" in="SourceGraphic" in2="BackgroundImageFix" result="shape"/>
<feGaussianBlur stdDeviation="62" result="effect1_foregroundBlur_932_782"/>
</filter>
<filter id="filter5_f_932_782" x="168.191" y="220.923" width="1155.34" height="926.846" filterUnits="userSpaceOnUse" color-interpolation-filters="sRGB">
<feFlood flood-opacity="0" result="BackgroundImageFix"/>
<feBlend mode="normal" in="SourceGraphic" in2="BackgroundImageFix" result="shape"/>
<feGaussianBlur stdDeviation="38" result="effect1_foregroundBlur_932_782"/>
</filter>
<filter id="filter6_f_932_782" x="80.1914" y="132.923" width="1331.34" height="1102.85" filterUnits="userSpaceOnUse" color-interpolation-filters="sRGB">
<feFlood flood-opacity="0" result="BackgroundImageFix"/>
<feBlend mode="normal" in="SourceGraphic" in2="BackgroundImageFix" result="shape"/>
<feGaussianBlur stdDeviation="82" result="effect1_foregroundBlur_932_782"/>
</filter>
<filter id="filter7_f_932_782" x="0.191406" y="52.9229" width="1491.34" height="1262.85" filterUnits="userSpaceOnUse" color-interpolation-filters="sRGB">
<feFlood flood-opacity="0" result="BackgroundImageFix"/>
<feBlend mode="normal" in="SourceGraphic" in2="BackgroundImageFix" result="shape"/>
<feGaussianBlur stdDeviation="122" result="effect1_foregroundBlur_932_782"/>
</filter>
</defs>
</svg>
